<svg width="48" height="48" viewBox="0 0 48 48" fill="none" xmlns="http://www.w3.org/2000/svg">
<path d="M4 38V15H44V38C44 39.1 43.1 40 42 40H6C4.9 40 4 39.1 4 38Z" fill="#F95568"/>
<path opacity="0.05" d="M35 32.772V27C35 25.897 34.103 25 33 25H31.291L31.058 25.665C31.039 25.715 29.111 30.687 20.864 31H17.308C15.804 31 14.365 31.604 13.358 32.659C12.423 33.64 11.943 34.908 12.006 36.229C12.079 37.769 12.981 39.127 14.299 40H35.169C36.298 39.167 36.964 37.876 36.964 36.45C36.963 34.952 36.234 33.598 35 32.772Z" fill="black"/>
<path opacity="0.07" d="M34.5 33.049V27C34.5 26.173 33.827 25.5 33 25.5H31.646L31.529 25.834C31.51 25.887 29.556 31.17 20.864 31.5H17.308C15.94 31.5 14.632 32.048 13.72 33.004C12.88 33.885 12.449 35.022 12.505 36.205C12.584 37.86 13.733 39.283 15.329 40H34.5V39.851C35.719 39.143 36.463 37.868 36.463 36.451C36.463 35.033 35.719 33.757 34.5 33.049Z" fill="black"/>
<path d="M44 10V15H4V10C4 8.9 4.9 8 6 8H42C43.1 8 44 8.9 44 10Z" fill="#FF8DB6"/>
<path d="M7.5 13C8.32843 13 9 12.3284 9 11.5C9 10.6716 8.32843 10 7.5 10C6.67157 10 6 10.6716 6 11.5C6 12.3284 6.67157 13 7.5 13Z" fill="url(#paint0_linear_4_33)"/>
<path d="M12.5 13C13.3284 13 14 12.3284 14 11.5C14 10.6716 13.3284 10 12.5 10C11.6716 10 11 10.6716 11 11.5C11 12.3284 11.6716 13 12.5 13Z" fill="url(#paint1_linear_4_33)"/>
<path d="M17.5 13C18.3284 13 19 12.3284 19 11.5C19 10.6716 18.3284 10 17.5 10C16.6716 10 16 10.6716 16 11.5C16 12.3284 16.6716 13 17.5 13Z" fill="url(#paint2_linear_4_33)"/>
<path d="M20.906 43H20V40H22V41.912C22.063 42.551 21.545 43.069 20.906 43Z" fill="#D9414F"/>
<path d="M20 40H17V46.425C17 47.295 17.705 48 18.575 48H19.475C19.765 48 20 47.765 20 47.475V40Z" fill="#353C9F"/>
<path d="M32.513 33C34.419 33 35.963 34.544 35.963 36.45C35.963 38.356 34.419 39.9 32.513 39.9V33Z" fill="#353C9F"/>
<path d="M32 26C32 26 29.913 32.033 20 32.033V40C29.913 40 32 46 32 46V26Z" fill="#FF8DB6"/>
<path d="M17.308 32C14.864 32 12.896 33.89 13.005 36.181C13.108 38.365 15.235 40 17.589 40H21V32H17.308Z" fill="#454DAF"/>
<path d="M33 46H32V26H33C33.552 26 34 26.448 34 27V45C34 45.552 33.552 46 33 46Z" fill="#454DAF"/>
<defs>
<linearGradient id="paint0_linear_4_33" x1="6.751" y1="10.416" x2="8.032" y2="12.269" gradientUnits="userSpaceOnUse">
<stop stop-color="#75DAFF"/>
<stop offset="1" stop-color="#49BEF1"/>
</linearGradient>
<linearGradient id="paint1_linear_4_33" x1="11.751" y1="10.416" x2="13.032" y2="12.269" gradientUnits="userSpaceOnUse">
<stop stop-color="#75DAFF"/>
<stop offset="1" stop-color="#49BEF1"/>
</linearGradient>
<linearGradient id="paint2_linear_4_33" x1="16.751" y1="10.416" x2="18.032" y2="12.269" gradientUnits="userSpaceOnUse">
<stop stop-color="#75DAFF"/>
<stop offset="1" stop-color="#49BEF1"/>
</linearGradient>
</defs>
</svg>
