<svg width="48" height="48" viewBox="0 0 48 48" fill="none" xmlns="http://www.w3.org/2000/svg">
<path d="M44 15C44.551 15 45 15.449 45 16V26.667C45 27.882 44.275 28.969 43.154 29.436L37 32V15H44ZM44 13H35V35L43.923 31.282C45.786 30.506 47 28.685 47 26.667V16C47 14.343 45.657 13 44 13Z" fill="url(#paint0_linear_4_86)"/>
<path d="M39 5H9C8.448 5 8 5.448 8 6V38C8 40.209 9.791 42 12 42H36C38.209 42 40 40.209 40 38V6C40 5.448 39.552 5 39 5Z" fill="url(#paint1_linear_4_86)"/>
<path opacity="0.05" d="M31.83 24.472C31.282 23.593 30.628 22.862 29.997 22.155C29.152 21.211 28.423 20.395 28.163 19.473C27.844 18.341 27.317 16.962 26.201 16.162C26.708 15.972 27.251 15.676 27.713 15.214C28.93 13.998 28.996 12.218 29 12.019C29.005 11.748 28.899 11.486 28.707 11.294C28.516 11.102 28.273 11.003 27.982 11.001C27.783 11.005 26.003 11.071 24.787 12.288C23.569 13.504 23.503 15.285 23.499 15.484C23.499 15.499 23.499 15.514 23.499 15.528C21.151 15.787 20.286 17.877 19.836 19.474C19.576 20.395 18.847 21.211 18.002 22.156C17.37 22.863 16.716 23.594 16.169 24.473C15.383 25.736 15 27.04 15 28.456C15 32.064 17.961 35 21.6 35C22.113 35 22.547 34.921 22.931 34.852C23.635 34.724 24.366 34.724 25.07 34.852C25.453 34.921 25.887 35 26.4 35C30.039 35 33 32.064 33 28.456C33 27.04 32.617 25.736 31.83 24.472Z" fill="black"/>
<path opacity="0.07" d="M31.405 24.736C30.881 23.893 30.241 23.179 29.623 22.488C28.774 21.538 27.972 20.641 27.681 19.608C27.222 17.979 26.412 16.116 24.209 16.005L24.509 16C24.58 15.999 26.263 15.957 27.36 14.859C28.457 13.763 28.499 12.08 28.501 12.008L28.51 11.49L27.991 11.5C27.92 11.501 26.236 11.543 25.14 12.641C24.043 13.737 24.001 15.42 23.999 15.492L23.991 16C21.636 16.005 20.791 17.93 20.318 19.608C20.027 20.641 19.225 21.538 18.376 22.487C17.758 23.178 17.119 23.892 16.594 24.735C15.857 25.918 15.499 27.135 15.499 28.455C15.499 31.788 18.235 34.499 21.599 34.499C22.067 34.499 22.46 34.428 22.841 34.359C23.59 34.223 24.408 34.223 25.157 34.359C25.537 34.428 25.931 34.499 26.399 34.499C29.763 34.499 32.499 31.788 32.499 28.455C32.5 27.136 32.142 25.919 31.405 24.736Z" fill="black"/>
<path d="M27.006 14.506C26.04 15.473 24.5 15.5 24.5 15.5C24.5 15.5 24.527 13.96 25.494 12.994C26.46 12.027 28 12 28 12C28 12 27.973 13.54 27.006 14.506ZM30.981 25C29.74 23.006 27.741 21.664 27.2 19.744C26.621 17.686 25.767 16.5 24 16.5C22.233 16.5 21.379 17.686 20.8 19.744C20.259 21.664 18.261 23.007 17.019 25C16.423 25.957 16 27.062 16 28.456C16 31.518 18.507 34 21.6 34C22.462 34 23.069 33.728 24 33.728C24.931 33.728 25.538 34 26.4 34C29.493 34 32 31.518 32 28.456C32 27.062 31.577 25.957 30.981 25Z" fill="white"/>
<defs>
<linearGradient id="paint0_linear_4_86" x1="47.046" y1="24" x2="40.779" y2="24" gradientUnits="userSpaceOnUse">
<stop offset="1" stop-color="#22C55E"/>
</linearGradient>
<linearGradient id="paint1_linear_4_86" x1="19.107" y1="6.173" x2="29.83" y2="41.352" gradientUnits="userSpaceOnUse">
<stop stop-color="#30DC80"/>
<stop offset="1" stop-color="#0A8645"/>
</linearGradient>
</defs>
</svg>
