<svg width="48" height="48" viewBox="0 0 48 48" fill="none" xmlns="http://www.w3.org/2000/svg">
<path d="M28 4C12 4 4 18.559 4 28C4 36.182 7 38 9.23 38C13.53 38 15.565 31 19 31C20.533 31 22 32.076 22 34C22 36.671 19 36.753 19 40.389C19 41.72 20.37 44 23.332 44C31.792 44 44 34 44 20.5C44 8.145 35 4 28 4ZM25.5 29C24.119 29 23 27.881 23 26.5C23 25.119 24.119 24 25.5 24C26.881 24 28 25.119 28 26.5C28 27.881 26.881 29 25.5 29Z" fill="url(#paint0_linear_4_104)"/>
<path opacity="0.15" d="M15.5 22C17.9853 22 20 19.9853 20 17.5C20 15.0147 17.9853 13 15.5 13C13.0147 13 11 15.0147 11 17.5C11 19.9853 13.0147 22 15.5 22Z" fill="url(#paint1_radial_4_104)"/>
<path opacity="0.15" d="M10.5 31C12.9853 31 15 28.9853 15 26.5C15 24.0147 12.9853 22 10.5 22C8.01472 22 6 24.0147 6 26.5C6 28.9853 8.01472 31 10.5 31Z" fill="url(#paint2_radial_4_104)"/>
<path d="M15.5 20C17.433 20 19 18.433 19 16.5C19 14.567 17.433 13 15.5 13C13.567 13 12 14.567 12 16.5C12 18.433 13.567 20 15.5 20Z" fill="url(#paint3_radial_4_104)"/>
<path opacity="0.15" d="M24.5 17C26.9853 17 29 14.9853 29 12.5C29 10.0147 26.9853 8 24.5 8C22.0147 8 20 10.0147 20 12.5C20 14.9853 22.0147 17 24.5 17Z" fill="url(#paint4_radial_4_104)"/>
<path d="M24.5 15C26.433 15 28 13.433 28 11.5C28 9.567 26.433 8 24.5 8C22.567 8 21 9.567 21 11.5C21 13.433 22.567 15 24.5 15Z" fill="url(#paint5_radial_4_104)"/>
<path opacity="0.15" d="M34.5 19C36.9853 19 39 16.9853 39 14.5C39 12.0147 36.9853 10 34.5 10C32.0147 10 30 12.0147 30 14.5C30 16.9853 32.0147 19 34.5 19Z" fill="url(#paint6_radial_4_104)"/>
<path d="M34.5 17C36.433 17 38 15.433 38 13.5C38 11.567 36.433 10 34.5 10C32.567 10 31 11.567 31 13.5C31 15.433 32.567 17 34.5 17Z" fill="url(#paint7_radial_4_104)"/>
<path opacity="0.15" d="M37.5 29C39.9853 29 42 26.9853 42 24.5C42 22.0147 39.9853 20 37.5 20C35.0147 20 33 22.0147 33 24.5C33 26.9853 35.0147 29 37.5 29Z" fill="url(#paint8_radial_4_104)"/>
<path d="M37.5 27C39.433 27 41 25.433 41 23.5C41 21.567 39.433 20 37.5 20C35.567 20 34 21.567 34 23.5C34 25.433 35.567 27 37.5 27Z" fill="url(#paint9_radial_4_104)"/>
<path d="M10.5 29C12.433 29 14 27.433 14 25.5C14 23.567 12.433 22 10.5 22C8.567 22 7 23.567 7 25.5C7 27.433 8.567 29 10.5 29Z" fill="url(#paint10_radial_4_104)"/>
<defs>
<linearGradient id="paint0_linear_4_104" x1="10.645" y1="11.8" x2="38.25" y2="36.027" gradientUnits="userSpaceOnUse">
<stop stop-color="#DB4474"/>
<stop offset="0.243" stop-color="#1AAB5E"/>
<stop offset="0.584" stop-color="#6366F1"/>
<stop offset="0.979" stop-color="#1693D9"/>
<stop offset="1" stop-color="#FCCD05"/>
</linearGradient>
<radialGradient id="paint1_radial_4_104" cx="0" cy="0" r="1" gradientUnits="userSpaceOnUse" gradientTransform="translate(15.5 17.5) scale(4.5)">
<stop/>
<stop offset="1" stop-opacity="0"/>
</radialGradient>
<radialGradient id="paint2_radial_4_104" cx="0" cy="0" r="1" gradientUnits="userSpaceOnUse" gradientTransform="translate(10.5 26.5) scale(4.5)">
<stop/>
<stop offset="1" stop-opacity="0"/>
</radialGradient>
<radialGradient id="paint3_radial_4_104" cx="0" cy="0" r="1" gradientUnits="userSpaceOnUse" gradientTransform="translate(13.51 13.722) scale(6.873)">
<stop stop-color="#FEE100"/>
<stop offset="1" stop-color="#F7A511"/>
</radialGradient>
<radialGradient id="paint4_radial_4_104" cx="0" cy="0" r="1" gradientUnits="userSpaceOnUse" gradientTransform="translate(24.5 12.5) scale(4.5)">
<stop/>
<stop offset="1" stop-opacity="0"/>
</radialGradient>
<radialGradient id="paint5_radial_4_104" cx="0" cy="0" r="1" gradientUnits="userSpaceOnUse" gradientTransform="translate(22.715 8.859) scale(6.758)">
<stop stop-color="#A6FF6E"/>
<stop offset="1" stop-color="#29CD2F"/>
</radialGradient>
<radialGradient id="paint6_radial_4_104" cx="0" cy="0" r="1" gradientUnits="userSpaceOnUse" gradientTransform="translate(34.5 14.5) scale(4.5)">
<stop/>
<stop offset="1" stop-opacity="0"/>
</radialGradient>
<radialGradient id="paint7_radial_4_104" cx="0" cy="0" r="1" gradientUnits="userSpaceOnUse" gradientTransform="translate(32.715 10.859) scale(6.758)">
<stop stop-color="#42A4FF"/>
<stop offset="1" stop-color="#1645AB"/>
</radialGradient>
<radialGradient id="paint8_radial_4_104" cx="0" cy="0" r="1" gradientUnits="userSpaceOnUse" gradientTransform="translate(37.5 24.5) scale(4.5)">
<stop/>
<stop offset="1" stop-opacity="0"/>
</radialGradient>
<radialGradient id="paint9_radial_4_104" cx="0" cy="0" r="1" gradientUnits="userSpaceOnUse" gradientTransform="translate(35.715 20.859) scale(6.758)">
<stop stop-color="#986EE0"/>
<stop offset="1" stop-color="#634796"/>
</radialGradient>
<radialGradient id="paint10_radial_4_104" cx="0" cy="0" r="1" gradientUnits="userSpaceOnUse" gradientTransform="translate(8.46 22.546) scale(6.755)">
<stop stop-color="#E85182"/>
<stop offset="1" stop-color="#D03767"/>
</radialGradient>
</defs>
</svg>
