<svg width="48" height="48" viewBox="0 0 48 48" fill="none" xmlns="http://www.w3.org/2000/svg">
<path d="M36.232 23.985C36.232 18.12 40.998 15.475 41.198 15.349C38.602 11.356 34.408 10.882 32.836 10.881C29.193 10.881 25.973 12.903 24.251 12.903C22.454 12.903 19.833 10.782 16.888 10.881C13.045 10.956 9.52501 13.227 7.55401 16.572C6.15701 18.968 5.60701 21.789 5.65801 24.659C5.66001 24.772 5.67501 24.887 5.67801 25H36.32C36.279 24.671 36.243 24.337 36.232 23.985Z" fill="#6366F1"/>
<path d="M30.565 7.063C32.261 5.191 33.21 2.621 33.06 0C30.714 0 27.994 1.372 26.272 3.394C24.924 5.066 23.477 7.687 24.001 10.307C26.422 10.607 29.043 9.085 30.565 7.063Z" fill="#6366F1"/>
<path d="M17.511 45C20.282 45 21.305 43.152 24.924 43.152C28.294 43.152 29.342 45 32.262 45C35.332 45 37.354 42.205 39.175 39.433C41.47 36.215 42.245 33.145 42.344 33.019C42.25 33.019 37.057 30.907 36.318 25H5.67801C5.83501 30.311 7.90601 35.79 10.349 39.309C12.27 42.055 14.441 45 17.511 45Z" fill="#6366F1" fill-opacity="0.5"/>
</svg>
