<svg width="48" height="48" viewBox="0 0 48 48" fill="none" xmlns="http://www.w3.org/2000/svg">
<path d="M39.0883 14.1335L7.91141 32.1335L8.91141 33.8655L40.0883 15.8655L39.0883 14.1335Z" fill="#64717C"/>
<path d="M7.91154 15.866L39.0885 33.866L40.0885 32.134L8.91154 14.134L7.91154 15.866Z" fill="#64717C"/>
<path d="M25 42L25 6H23L23 42H25Z" fill="#64717C"/>
<path d="M24 9C25.6569 9 27 7.65685 27 6C27 4.34315 25.6569 3 24 3C22.3431 3 21 4.34315 21 6C21 7.65685 22.3431 9 24 9Z" fill="#30DC80"/>
<path d="M8 18C9.65685 18 11 16.6569 11 15C11 13.3431 9.65685 12 8 12C6.34315 12 5 13.3431 5 15C5 16.6569 6.34315 18 8 18Z" fill="#30DC80"/>
<path d="M8 36C9.65685 36 11 34.6569 11 33C11 31.3431 9.65685 30 8 30C6.34315 30 5 31.3431 5 33C5 34.6569 6.34315 36 8 36Z" fill="#30DC80"/>
<path d="M40 18C41.6569 18 43 16.6569 43 15C43 13.3431 41.6569 12 40 12C38.3431 12 37 13.3431 37 15C37 16.6569 38.3431 18 40 18Z" fill="#30DC80"/>
<path d="M40 36C41.6569 36 43 34.6569 43 33C43 31.3431 41.6569 30 40 30C38.3431 30 37 31.3431 37 33C37 34.6569 38.3431 36 40 36Z" fill="#30DC80"/>
<path d="M24 45C25.6569 45 27 43.6569 27 42C27 40.3431 25.6569 39 24 39C22.3431 39 21 40.3431 21 42C21 43.6569 22.3431 45 24 45Z" fill="#30DC80"/>
<path d="M35 24C35 30.075 30.075 35 24 35C17.925 35 13 30.075 13 24C13 17.925 17.925 13 24 13C30.075 13 35 17.925 35 24Z" fill="url(#paint0_radial_4_71)"/>
<path d="M24 35C27.187 35 30.049 33.636 32.058 31.47C30.697 28.369 27.604 26.2 24 26.2C20.396 26.2 17.303 28.369 15.942 31.47C17.951 33.636 20.813 35 24 35Z" fill="url(#paint1_radial_4_71)"/>
<path d="M24 26C26.7614 26 29 23.7614 29 21C29 18.2386 26.7614 16 24 16C21.2386 16 19 18.2386 19 21C19 23.7614 21.2386 26 24 26Z" fill="url(#paint2_radial_4_71)"/>
<path d="M24 25C26.2091 25 28 23.2091 28 21C28 18.7909 26.2091 17 24 17C21.7909 17 20 18.7909 20 21C20 23.2091 21.7909 25 24 25Z" fill="#7EEF5A"/>
<path d="M24 35C26.758 35 29.273 33.977 31.204 32.3C30.109 29.381 27.301 27.3 24 27.3C20.699 27.3 17.891 29.381 16.796 32.3C18.727 33.977 21.242 35 24 35Z" fill="#30DC80"/>
<defs>
<radialGradient id="paint0_radial_4_71" cx="0" cy="0" r="1" gradientUnits="userSpaceOnUse" gradientTransform="translate(16.947 15.416) scale(22.172)">
<stop stop-color="#30DC80"/>
<stop offset="0.484" stop-color="#26C772"/>
<stop offset="0.775" stop-color="#28CA74"/>
<stop offset="1" stop-color="#30DC80"/>
</radialGradient>
<radialGradient id="paint1_radial_4_71" cx="0" cy="0" r="1" gradientUnits="userSpaceOnUse" gradientTransform="translate(24 35.059) scale(8.877)">
<stop/>
<stop offset="1" stop-opacity="0"/>
</radialGradient>
<radialGradient id="paint2_radial_4_71" cx="0" cy="0" r="1" gradientUnits="userSpaceOnUse" gradientTransform="translate(23.9996 20.9992) scale(4.9998)">
<stop/>
<stop offset="1" stop-opacity="0"/>
</radialGradient>
</defs>
</svg>
