<svg width="48" height="48" viewBox="0 0 48 48" fill="none" xmlns="http://www.w3.org/2000/svg">
<path d="M26 32H6V35C6 36.105 6.895 37 8 37H24C25.105 37 26 36.105 26 35V32Z" fill="#184F85"/>
<path d="M26 28H6V32H26V28Z" fill="#6366F1"/>
<path d="M26 18H6V28H26V18Z" fill="#6366F1"/>
<path d="M26 10H6V18H26V10Z" fill="#6366F1"/>
<path d="M26 10H6V7C6 5.895 6.895 5 8 5H24C25.105 5 26 5.895 26 7V10Z" fill="#50E6FF"/>
<path d="M12 8.25C12.4142 8.25 12.75 7.91421 12.75 7.5C12.75 7.08579 12.4142 6.75 12 6.75C11.5858 6.75 11.25 7.08579 11.25 7.5C11.25 7.91421 11.5858 8.25 12 8.25Z" fill="#6366F1"/>
<path d="M19.5 6.75C19.306 6.75 14.694 6.75 14.5 6.75C14.086 6.75 13.75 7.086 13.75 7.5C13.75 7.914 14.086 8.25 14.5 8.25C14.694 8.25 19.306 8.25 19.5 8.25C19.914 8.25 20.25 7.914 20.25 7.5C20.25 7.086 19.914 6.75 19.5 6.75Z" fill="#6366F1"/>
<path opacity="0.07" d="M26 37V12H23C21.895 12 21 12.895 21 14V37H26Z" fill="black"/>
<path opacity="0.05" d="M26 37V11H23C21.343 11 20 12.343 20 14V37H26Z" fill="black"/>
<path d="M42 40H22V43C22 44.105 22.895 45 24 45H40C41.105 45 42 44.105 42 43V40Z" fill="#184F85"/>
<path d="M42 36H22V40H42V36Z" fill="#6366F1"/>
<path d="M42 26H22V36H42V26Z" fill="#6366F1"/>
<path d="M42 18H22V26H42V18Z" fill="#6366F1"/>
<path d="M42 18H22V15C22 13.895 22.895 13 24 13H40C41.105 13 42 13.895 42 15V18Z" fill="#50E6FF"/>
<path d="M28 16.25C28.4142 16.25 28.75 15.9142 28.75 15.5C28.75 15.0858 28.4142 14.75 28 14.75C27.5858 14.75 27.25 15.0858 27.25 15.5C27.25 15.9142 27.5858 16.25 28 16.25Z" fill="#0C63AD"/>
<path d="M35.5 14.75C35.306 14.75 30.694 14.75 30.5 14.75C30.086 14.75 29.75 15.086 29.75 15.5C29.75 15.914 30.086 16.25 30.5 16.25C30.694 16.25 35.306 16.25 35.5 16.25C35.914 16.25 36.25 15.914 36.25 15.5C36.25 15.086 35.914 14.75 35.5 14.75Z" fill="#0C63AD"/>
</svg>
