<svg width="48" height="48" viewBox="0 0 48 48" fill="none" xmlns="http://www.w3.org/2000/svg">
<path d="M4 38V15H44V38C44 39.1 43.1 40 42 40H6C4.9 40 4 39.1 4 38Z" fill="#6366F1"/>
<path d="M44 10V15H4V10C4 8.9 4.9 8 6 8H42C43.1 8 44 8.9 44 10Z" fill="#50E6FF"/>
<path d="M16.5 13H41.5C41.776 13 42 12.776 42 12.5V10.5C42 10.224 41.776 10 41.5 10H16.5C16.224 10 16 10.224 16 10.5V12.5C16 12.776 16.224 13 16.5 13Z" fill="#6366F1"/>
<path d="M7.5 13C8.32843 13 9 12.3284 9 11.5C9 10.6716 8.32843 10 7.5 10C6.67157 10 6 10.6716 6 11.5C6 12.3284 6.67157 13 7.5 13Z" fill="#6366F1"/>
<path d="M12.5 13C13.3284 13 14 12.3284 14 11.5C14 10.6716 13.3284 10 12.5 10C11.6716 10 11 10.6716 11 11.5C11 12.3284 11.6716 13 12.5 13Z" fill="#6366F1"/>
<path opacity="0.05" d="M32 24.766V20.236C32 19.003 30.997 18 29.764 18C28.912 18 28.145 18.474 27.764 19.235L27.255 20.254L21.553 23.105C21.214 23.275 21 23.621 21 24C21 23.448 20.552 23 20 23H17C15.346 23 14 24.346 14 26V28C14 29.654 15.346 31 17 31V34C17 35.103 17.897 36 19 36C20.103 36 21 35.103 21 34V30C21 30.379 21.214 30.725 21.553 30.895L27.255 33.746L27.765 34.766C28.146 35.528 28.913 36.001 29.765 36.001C30.997 36 32 34.997 32 33.764V29.232C32.626 28.67 32.998 27.859 33 27C33 26.141 32.627 25.329 32 24.766Z" fill="black"/>
<path opacity="0.07" d="M17 23.5H20.5V34C20.5 34.827 19.827 35.5 19 35.5C18.173 35.5 17.5 34.827 17.5 34V30.5H17C15.622 30.5 14.5 29.378 14.5 28V26C14.5 24.622 15.622 23.5 17 23.5ZM31.5 25.002V20.236C31.5 19.279 30.721 18.5 29.764 18.5C29.102 18.5 28.507 18.868 28.211 19.459L27.628 20.627L21.5 23.691V30.309L27.627 33.372L28.21 34.54C28.506 35.132 29.102 35.499 29.763 35.499C30.72 35.499 31.499 34.72 31.499 33.763V28.995C32.121 28.528 32.498 27.788 32.499 26.998C32.5 26.211 32.123 25.47 31.5 25.002Z" fill="black"/>
<path d="M28.658 19.683L28 21L22 24V30L28 33L28.658 34.317C28.868 34.735 29.296 35 29.764 35C30.447 35 31 34.447 31 33.764V28.729C31.618 28.372 31.999 27.714 32 27C31.999 26.286 31.618 25.627 31 25.27V20.237C31 19.553 30.447 19 29.764 19C29.296 19 28.868 19.265 28.658 19.683ZM17 24C15.9 24 15 24.9 15 26V28C15 29.1 15.9 30 17 30H18V34C18 34.552 18.448 35 19 35C19.552 35 20 34.552 20 34V28V24H17Z" fill="white"/>
</svg>
