<svg width="46" height="28" viewBox="0 0 46 28" fill="none" xmlns="http://www.w3.org/2000/svg">
<path d="M7.23227 22.154C6.10294 22.154 5.09094 21.9707 4.19627 21.604C3.30161 21.2373 2.58294 20.6947 2.04027 19.976C1.51227 19.2573 1.23361 18.392 1.20427 17.38H5.20827C5.26694 17.952 5.46494 18.392 5.80227 18.7C6.13961 18.9933 6.57961 19.14 7.12227 19.14C7.67961 19.14 8.11961 19.0153 8.44227 18.766C8.76494 18.502 8.92627 18.1427 8.92627 17.688C8.92627 17.3067 8.79427 16.9913 8.53027 16.742C8.28094 16.4927 7.96561 16.2873 7.58427 16.126C7.21761 15.9647 6.68961 15.7813 6.00027 15.576C5.00294 15.268 4.18894 14.96 3.55827 14.652C2.92761 14.344 2.38494 13.8893 1.93027 13.288C1.47561 12.6867 1.24827 11.902 1.24827 10.934C1.24827 9.49667 1.76894 8.37467 2.81027 7.568C3.85161 6.74667 5.20827 6.336 6.88027 6.336C8.58161 6.336 9.95294 6.74667 10.9943 7.568C12.0356 8.37467 12.5929 9.504 12.6663 10.956H8.59627C8.56694 10.4573 8.38361 10.0687 8.04627 9.79C7.70894 9.49667 7.27627 9.35 6.74827 9.35C6.29361 9.35 5.92694 9.47467 5.64827 9.724C5.36961 9.95867 5.23027 10.3033 5.23027 10.758C5.23027 11.2567 5.46494 11.6453 5.93427 11.924C6.40361 12.2027 7.13694 12.5033 8.13427 12.826C9.13161 13.1633 9.93827 13.486 10.5543 13.794C11.1849 14.102 11.7276 14.5493 12.1823 15.136C12.6369 15.7227 12.8643 16.478 12.8643 17.402C12.8643 18.282 12.6369 19.0813 12.1823 19.8C11.7423 20.5187 11.0969 21.0907 10.2463 21.516C9.39561 21.9413 8.39094 22.154 7.23227 22.154ZM16.9394 22.176C16.2794 22.176 15.7368 21.9853 15.3114 21.604C14.9008 21.208 14.6954 20.724 14.6954 20.152C14.6954 19.5653 14.9008 19.074 15.3114 18.678C15.7368 18.282 16.2794 18.084 16.9394 18.084C17.5848 18.084 18.1128 18.282 18.5234 18.678C18.9488 19.074 19.1614 19.5653 19.1614 20.152C19.1614 20.724 18.9488 21.208 18.5234 21.604C18.1128 21.9853 17.5848 22.176 16.9394 22.176ZM25.1504 6.556V22H21.3884V6.556H25.1504ZM29.6367 22.176C28.9767 22.176 28.434 21.9853 28.0087 21.604C27.598 21.208 27.3927 20.724 27.3927 20.152C27.3927 19.5653 27.598 19.074 28.0087 18.678C28.434 18.282 28.9767 18.084 29.6367 18.084C30.282 18.084 30.81 18.282 31.2207 18.678C31.646 19.074 31.8587 19.5653 31.8587 20.152C31.8587 20.724 31.646 21.208 31.2207 21.604C30.81 21.9853 30.282 22.176 29.6367 22.176ZM45.1957 6.556V9.57H41.1037V22H37.3417V9.57H33.2497V6.556H45.1957Z" fill="black"/>
<path d="M2 25H17V28H2V25Z" fill="black"/>
<path d="M30 0H45V3H30V0Z" fill="black"/>
</svg>
